<mxfile host="app.diagrams.net" modified="2024-02-19T08:43:18.544Z" agent="Mozilla/5.0 (Windows NT 10.0; Win64; x64) AppleWebKit/537.36 (KHTML, like Gecko) Chrome/121.0.0.0 Safari/537.36" version="23.0.2" etag="FwLAC1V5tHwKEKdPQO_W" type="github">
  <diagram name="第 1 页" id="bTT28SZlvvfAkEpko0Lr">
    <mxGraphModel>
      <root>
        <mxCell id="0" />
        <mxCell id="1" parent="0" />
      </root>
    </mxGraphModel>
  </diagram>
</mxfile>
